<?xml version="1.0" encoding="UTF-8"?>
<!-- TODO Verify samples balance (volume) -->
<?xml-model href="https://raw.githubusercontent.com/Thiago-Morais/DecentSampler-schema/refs/heads/development/DecentSampler.xsd"?>
<DecentSampler>
	<effects>
		<effect type="highpass" frequency="100.0" />
		<effect type="chorus" mix="0.1377191245555878" modDepth="0.2" modRate="0.2" />
		<effect type="delay" delayTimeFormat="musical_time" delayTime="10" stereoOffset="0.01" feedback="0.3" wetLevel="0.5" />
		<effect type="reverb" wetLevel="1.0" />
	</effects>
	<ui width="812" height="375" bgImage="Resources/Images/French Horn.png">
		<tab name="main">
			<labeled-knob x="565" y="25" width="90" textSize="20" textColor="FF000000" trackForegroundColor="CC000000" trackBackgroundColor="66999999" label="Attack" type="float" minValue="0.0" maxValue="4.0" value="0.01">
				<binding type="amp" level="instrument" position="0" parameter="ENV_ATTACK" />
			</labeled-knob>
			<labeled-knob x="635" y="25" width="90" textSize="20" textColor="FF000000" trackForegroundColor="CC000000" trackBackgroundColor="66999999" label="Release" type="float" minValue="0.0" maxValue="20.0" value="0.16">
				<binding type="amp" level="instrument" position="0" parameter="ENV_RELEASE" />
			</labeled-knob>
			<labeled-knob x="705" y="25" width="90" textSize="20" textColor="FF000000" trackForegroundColor="CC000000" trackBackgroundColor="66999999" label="Highpass" type="float" minValue="0" maxValue="1" value="0">
				<binding type="effect" level="instrument" position="0" parameter="FX_FILTER_FREQUENCY" translation="table" translationTable="0,33;0.3,150;0.4,450;0.5,1100;0.7,4100;0.9,11000;11,22000" />
			</labeled-knob>
			<labeled-knob x="565" y="115" width="90" textSize="20" textColor="FF000000" trackForegroundColor="CC000000" trackBackgroundColor="66999999" label="Chorus" type="float" minValue="0.0" maxValue="1" value="0">
				<binding type="effect" level="instrument" position="1" parameter="FX_MIX" />
			</labeled-knob>
			<labeled-knob x="635" y="115" width="90" textSize="20" textColor="FF000000" trackForegroundColor="CC000000" trackBackgroundColor="66999999" label="Delay" type="musical_time" minValue="0" maxValue="20" value="0" defaultValue="0">
				<binding type="effect" level="instrument" position="2" parameter="FX_DELAY_TIME" />
			</labeled-knob>
			<labeled-knob x="705" y="115" width="90" textSize="20" textColor="FF000000" trackForegroundColor="CC000000" trackBackgroundColor="66999999" label="Reverb" type="float" minValue="0.0" maxValue="1" value="0">
				<binding type="effect" level="instrument" position="3" parameter="FX_REVERB_WET_LEVEL" />
			</labeled-knob>
			<labeled-knob x="230" y="140" width="70" textSize="20" textColor="FF000000" trackForegroundColor="CC000000" trackBackgroundColor="66999999" label="Dynamics" type="float" minValue="0" maxValue="1" value="1">
				<binding type="amp" level="instrument" parameter="AMP_VOLUME" translation="linear" translationOutputMin="0" translationOutputMax="1" />
				<!-- Cross fade between 2 samples -->
				<binding type="amp" level="tag" parameter="TAG_VOLUME" identifier="2-dynamics-ff" translation="table" translationTable="0.0,0;0.5,0;1.0,1" />
				<binding type="amp" level="tag" parameter="TAG_VOLUME" identifier="2-dynamics-mp" translation="table" translationTable="0.0,1;0.5,1;1.0,0" />
				<!-- Cross fade between 3 samples -->
				<binding type="amp" level="tag" parameter="TAG_VOLUME" identifier="3-dynamics-ff" translation="table" translationTable="0.0,0;0.23,0;0.43,0;0.66,0;1.0,1" />
				<binding type="amp" level="tag" parameter="TAG_VOLUME" identifier="3-dynamics-mf" translation="table" translationTable="0.0,0;0.23,0;0.43,1;0.66,1;1.0,0" />
				<binding type="amp" level="tag" parameter="TAG_VOLUME" identifier="3-dynamics-mp" translation="table" translationTable="0.0,1;0.23,1;0.43,0;0.66,0;1.0,0" />
			</labeled-knob>
		</tab>
		<keyboard />
	</ui>
	<groups release="0.026" ampVelTrack="0.5">
		<group name="000.061">
			<sample rootNote="28" loNote="0" hiNote="48" loopEnabled="true" loopEnd="265000" loopStart="100000" path="Resources/French Horn - Ensemble Samples/000.061.000.wav" />
			<sample rootNote="52" loNote="49" hiNote="52" loopEnabled="true" loopEnd="265000" loopStart="100000" path="Resources/French Horn - Ensemble Samples/000.061.004.wav" />
			<sample rootNote="55" loNote="53" hiNote="56" loopEnabled="true" loopEnd="265000" loopStart="100000" path="Resources/French Horn - Ensemble Samples/000.061.005.wav" />
			<sample rootNote="60" loNote="57" hiNote="60" loopEnabled="true" loopEnd="265000" loopStart="100000" path="Resources/French Horn - Ensemble Samples/000.061.006.wav" />
			<sample rootNote="64" loNote="61" hiNote="64" loopEnabled="true" loopEnd="265000" loopStart="100000" path="Resources/French Horn - Ensemble Samples/000.061.007.wav" />
			<sample rootNote="67" loNote="65" hiNote="68" loopEnabled="true" loopEnd="265000" loopStart="100000" path="Resources/French Horn - Ensemble Samples/000.061.008.wav" />
			<sample rootNote="72" loNote="69" hiNote="72" loopEnabled="true" loopEnd="265000" loopStart="100000" path="Resources/French Horn - Ensemble Samples/000.061.009.wav" />
			<sample rootNote="76" loNote="73" hiNote="76" loopEnabled="true" loopEnd="265000" loopStart="100000" path="Resources/French Horn - Ensemble Samples/000.061.010.wav" />
			<sample rootNote="79" loNote="77" hiNote="80" loopEnabled="true" loopEnd="265000" loopStart="10000" path="Resources/French Horn - Ensemble Samples/000.061.011.wav" />
			<sample rootNote="84" loNote="81" hiNote="108" loopEnabled="true" loopEnd="265000" loopStart="100000" path="Resources/French Horn - Ensemble Samples/000.061.012.wav" />
		</group>
	</groups>
	<midi>
		<!-- Controls dynamics with modwheel -->
		<cc number="1">
			<binding type="control" level="ui" parameter="VALUE" position="6" translation="linear" translationOutputMin="0" translationOutputMax="1" />
		</cc>
		<!-- Controls attack with note velocity -->
		<note note="0-127">
			<binding type="amp" level="instrument" parameter="ENV_ATTACK" translation="table" translationTable="0.0,1;0.05,0.5;0.75,0;1.0,0" translationOutputMin="3" translationOutputMax="0" />
			<binding type="amp" level="instrument" parameter="ENV_ATTACK_CURVE" translation="linear" translationOutputMin="100" translationOutputMax="-100 " />
		</note>
	</midi>
	<!-- Initial dynamics values -->
	<tags>
		<tag name="2-dynamics-ff" volume="1" />
		<tag name="2-dynamics-mp" volume="0" />
		<tag name="3-dynamics-ff" volume="1" />
		<tag name="3-dynamics-mf" volume="0" />
		<tag name="3-dynamics-mp" volume="0" />
	</tags>
	<modulators />
</DecentSampler>
